<?xml version="1.0" encoding="utf-8"?>
<!-- Generator: Adobe Illustrator 16.0.0, SVG Export Plug-In . SVG Version: 6.00 Build 0)  -->
<!DOCTYPE svg PUBLIC "-//W3C//DTD SVG 1.1//EN" "http://www.w3.org/Graphics/SVG/1.1/DTD/svg11.dtd">
<svg version="1.1" xmlns="http://www.w3.org/2000/svg" xmlns:xlink="http://www.w3.org/1999/xlink" x="0px" y="0px" width="900px"
	 height="900px" viewBox="0 0 900 900" enable-background="new 0 0 900 900" xml:space="preserve">
<g id="CIRCLE">
</g>
<g id="FLAT-ICON">
	<g>
		<g>
			<g>
				<g>
					<rect x="290.293" y="363.924" fill="#2F484E" width="160.46" height="237.076"/>
				</g>
				<g>
					<g>
						<path fill="#A3AEB0" d="M370.521,458.933c-35.759,0-64.849,29.092-64.849,64.854c0,35.756,29.09,64.846,64.849,64.846
							c35.76,0,64.85-29.09,64.85-64.846C435.371,488.024,406.281,458.933,370.521,458.933z M370.521,586.825
							c-34.76,0-63.038-28.284-63.038-63.038c0-34.761,28.277-63.044,63.038-63.044c34.763,0,63.038,28.283,63.038,63.044
							C433.559,558.541,405.285,586.825,370.521,586.825z"/>
					</g>
					<path fill="#A3AEB0" d="M370.521,473.045c-28.02,0-50.739,22.717-50.739,50.742c0,28.019,22.719,50.734,50.739,50.734
						c28.023,0,50.739-22.716,50.739-50.734C421.26,495.762,398.545,473.045,370.521,473.045z M370.521,548.807
						c-13.815,0-25.021-11.2-25.021-25.02s11.206-25.025,25.021-25.025c13.823,0,25.022,11.206,25.022,25.025
						S384.344,548.807,370.521,548.807z"/>
				</g>
				<g>
					<g>
						<path fill="#A3AEB0" d="M370.521,377.224c-19.623,0-35.589,15.965-35.589,35.594c0,19.622,15.966,35.588,35.589,35.588
							c19.627,0,35.592-15.966,35.592-35.588C406.114,393.189,390.148,377.224,370.521,377.224z M370.521,446.598
							c-18.625,0-33.78-15.154-33.78-33.78c0-18.629,15.155-33.784,33.78-33.784c18.628,0,33.785,15.154,33.785,33.784
							C404.307,431.443,389.149,446.598,370.521,446.598z"/>
					</g>
					<path fill="#A3AEB0" d="M370.521,388.401c-13.48,0-24.411,10.933-24.411,24.416c0,13.48,10.931,24.413,24.411,24.413
						c13.483,0,24.415-10.933,24.415-24.413C394.937,399.334,384.004,388.401,370.521,388.401z M370.521,424.854
						c-6.646,0-12.037-5.39-12.037-12.037c0-6.649,5.39-12.04,12.037-12.04s12.04,5.391,12.04,12.04
						C382.562,419.464,377.168,424.854,370.521,424.854z"/>
				</g>
				<g>
					<g>
						<g>
							<path fill="#697B7F" d="M313.815,378.13c-6.644,0-12.034,5.392-12.034,12.037c0,6.647,5.391,12.041,12.034,12.041
								c6.654,0,12.045-5.394,12.045-12.041C325.86,383.521,320.47,378.13,313.815,378.13z"/>
							<path fill="#A3AEB0" d="M313.815,377.369c-7.056,0-12.793,5.744-12.793,12.798c0,7.056,5.738,12.798,12.793,12.798
								c7.06,0,12.805-5.743,12.805-12.798C326.62,383.112,320.875,377.369,313.815,377.369z M313.815,401.446
								c-6.219,0-11.276-5.058-11.276-11.279c0-6.218,5.057-11.278,11.276-11.278c6.223,0,11.287,5.061,11.287,11.278
								C325.103,396.389,320.038,401.446,313.815,401.446z"/>
						</g>
					</g>
					<g>
						<g>
							<path fill="#697B7F" d="M427.225,378.13c-6.645,0-12.037,5.392-12.037,12.037c0,6.647,5.392,12.041,12.037,12.041
								c6.649,0,12.043-5.394,12.043-12.041C439.269,383.521,433.875,378.13,427.225,378.13z"/>
							<path fill="#A3AEB0" d="M427.225,377.369c-7.057,0-12.795,5.744-12.795,12.798c0,7.056,5.738,12.798,12.795,12.798
								c7.059,0,12.8-5.743,12.8-12.798C440.025,383.112,434.284,377.369,427.225,377.369z M427.225,401.446
								c-6.22,0-11.278-5.058-11.278-11.279c0-6.218,5.058-11.278,11.278-11.278c6.221,0,11.282,5.061,11.282,11.278
								C438.507,396.389,433.446,401.446,427.225,401.446z"/>
						</g>
					</g>
				</g>
			</g>
			<g>
				<g>
					<rect x="431.548" y="588.855" fill="#CF4742" width="12.727" height="4.681"/>
				</g>
				<g>
					<rect x="298.602" y="588.855" fill="#48BC9E" width="12.729" height="4.681"/>
				</g>
			</g>
		</g>
	</g>
	<g>
		<g>
			<g>
				<g>
					<rect x="464.96" y="363.924" fill="#2F484E" width="160.46" height="237.076"/>
				</g>
				<g>
					<g>
						<path fill="#A3AEB0" d="M545.188,458.933c-35.759,0-64.85,29.092-64.85,64.854c0,35.756,29.091,64.846,64.85,64.846
							c35.76,0,64.85-29.09,64.85-64.846C610.037,488.024,580.947,458.933,545.188,458.933z M545.188,586.825
							c-34.76,0-63.037-28.284-63.037-63.038c0-34.761,28.277-63.044,63.037-63.044c34.764,0,63.037,28.283,63.037,63.044
							C608.225,558.541,579.951,586.825,545.188,586.825z"/>
					</g>
					<path fill="#A3AEB0" d="M545.188,473.045c-28.021,0-50.738,22.717-50.738,50.742c0,28.019,22.717,50.734,50.738,50.734
						c28.022,0,50.739-22.716,50.739-50.734C595.927,495.762,573.21,473.045,545.188,473.045z M545.188,548.807
						c-13.814,0-25.021-11.2-25.021-25.02s11.207-25.025,25.021-25.025c13.823,0,25.022,11.206,25.022,25.025
						S559.011,548.807,545.188,548.807z"/>
				</g>
				<g>
					<g>
						<path fill="#A3AEB0" d="M545.188,377.224c-19.625,0-35.587,15.965-35.587,35.594c0,19.622,15.962,35.588,35.587,35.588
							c19.626,0,35.594-15.966,35.594-35.588C580.781,393.189,564.813,377.224,545.188,377.224z M545.188,446.598
							c-18.623,0-33.78-15.154-33.78-33.78c0-18.629,15.157-33.784,33.78-33.784c18.63,0,33.786,15.154,33.786,33.784
							C578.974,431.443,563.817,446.598,545.188,446.598z"/>
					</g>
					<path fill="#A3AEB0" d="M545.188,388.401c-13.479,0-24.413,10.933-24.413,24.416c0,13.48,10.934,24.413,24.413,24.413
						c13.483,0,24.414-10.933,24.414-24.413C569.602,399.334,558.671,388.401,545.188,388.401z M545.188,424.854
						c-6.646,0-12.036-5.39-12.036-12.037c0-6.649,5.391-12.04,12.036-12.04c6.647,0,12.041,5.391,12.041,12.04
						C557.229,419.464,551.835,424.854,545.188,424.854z"/>
				</g>
				<g>
					<g>
						<g>
							<path fill="#697B7F" d="M488.481,378.13c-6.644,0-12.033,5.392-12.033,12.037c0,6.647,5.39,12.041,12.033,12.041
								c6.652,0,12.043-5.394,12.043-12.041C500.524,383.521,495.134,378.13,488.481,378.13z"/>
							<path fill="#A3AEB0" d="M488.481,377.369c-7.056,0-12.794,5.744-12.794,12.798c0,7.056,5.738,12.798,12.794,12.798
								c7.059,0,12.805-5.743,12.805-12.798C501.286,383.112,495.54,377.369,488.481,377.369z M488.481,401.446
								c-6.218,0-11.276-5.058-11.276-11.279c0-6.218,5.059-11.278,11.276-11.278c6.222,0,11.289,5.061,11.289,11.278
								C499.771,396.389,494.703,401.446,488.481,401.446z"/>
						</g>
					</g>
					<g>
						<g>
							<path fill="#697B7F" d="M601.891,378.13c-6.643,0-12.036,5.392-12.036,12.037c0,6.647,5.394,12.041,12.036,12.041
								c6.65,0,12.044-5.394,12.044-12.041C613.935,383.521,608.541,378.13,601.891,378.13z"/>
							<path fill="#A3AEB0" d="M601.891,377.369c-7.055,0-12.795,5.744-12.795,12.798c0,7.056,5.74,12.798,12.795,12.798
								c7.06,0,12.802-5.743,12.802-12.798C614.692,383.112,608.95,377.369,601.891,377.369z M601.891,401.446
								c-6.217,0-11.278-5.058-11.278-11.279c0-6.218,5.062-11.278,11.278-11.278c6.223,0,11.283,5.061,11.283,11.278
								C613.174,396.389,608.113,401.446,601.891,401.446z"/>
						</g>
					</g>
				</g>
			</g>
			<g>
				<g>
					<rect x="606.213" y="588.855" fill="#CF4742" width="12.729" height="4.681"/>
				</g>
				<g>
					<rect x="473.269" y="588.855" fill="#48BC9E" width="12.727" height="4.681"/>
				</g>
			</g>
		</g>
	</g>
	<g>
		<g>
			<rect x="346.422" y="268.938" fill="#2F484E" width="237.075" height="90.56"/>
		</g>
		<g>
			<g>
				<path fill="#697B7F" d="M356.325,316.376c0,6.644,5.391,12.034,12.037,12.034c6.646,0,12.04-5.39,12.04-12.034
					c0-6.653-5.394-12.043-12.04-12.043C361.716,304.333,356.325,309.723,356.325,316.376z"/>
				<path fill="#A3AEB0" d="M355.564,316.376c0,7.056,5.743,12.794,12.798,12.794s12.798-5.739,12.798-12.794
					c0-7.059-5.743-12.805-12.798-12.805S355.564,309.317,355.564,316.376z M379.641,316.376c0,6.218-5.057,11.275-11.279,11.275
					c-6.219,0-11.279-5.057-11.279-11.275c0-6.222,5.061-11.289,11.279-11.289C374.584,305.087,379.641,310.154,379.641,316.376z"/>
			</g>
		</g>
		<g>
			<g>
				<path fill="#697B7F" d="M548.273,316.372c0,6.644,5.391,12.038,12.037,12.038c6.646,0,12.039-5.394,12.039-12.038
					c0-6.649-5.394-12.043-12.039-12.043C553.664,304.329,548.273,309.723,548.273,316.372z"/>
				<path fill="#A3AEB0" d="M547.513,316.372c0,7.056,5.742,12.795,12.798,12.795c7.055,0,12.797-5.74,12.797-12.795
					c0-7.059-5.742-12.801-12.797-12.801C553.255,303.571,547.513,309.313,547.513,316.372z M571.59,316.372
					c0,6.219-5.059,11.279-11.279,11.279c-6.219,0-11.279-5.061-11.279-11.279c0-6.221,5.061-11.282,11.279-11.282
					C566.531,305.09,571.59,310.151,571.59,316.372z"/>
			</g>
		</g>
		<g>
			<rect x="390.683" y="335.027" fill="#FFDD93" width="4.684" height="8.264"/>
		</g>
		<g>
			<rect x="400.434" y="335.031" fill="#FFDD93" width="4.684" height="8.263"/>
		</g>
		<rect x="536.389" y="288.104" fill="#A3AEB0" width="0.812" height="55.186"/>
		<rect x="525.43" y="288.104" fill="#A3AEB0" width="0.812" height="55.186"/>
		<rect x="512.847" y="288.104" fill="#A3AEB0" width="0.812" height="55.186"/>
		<rect x="501.888" y="288.104" fill="#A3AEB0" width="0.812" height="55.186"/>
		<rect x="489.306" y="288.104" fill="#A3AEB0" width="0.812" height="55.186"/>
		<rect x="484.647" y="329.17" fill="#FFFFFF" width="10.129" height="5.521"/>
		<rect x="496.824" y="298.05" fill="#FFFFFF" width="10.129" height="5.521"/>
		<rect x="508.596" y="310.175" fill="#FFFFFF" width="10.127" height="5.521"/>
		<rect x="521.178" y="318.456" fill="#FFFFFF" width="10.127" height="5.521"/>
		<rect x="531.729" y="301.572" fill="#FFFFFF" width="10.13" height="5.521"/>
		<rect x="390.683" y="288.097" fill="#8EDAE5" width="74.277" height="37.991"/>
		<rect x="390.683" y="318.456" opacity="0.5" fill="#18343A" width="74.277" height="7.632"/>
		<g>
			<rect x="410.571" y="335.027" fill="#FFDD93" width="4.684" height="8.265"/>
		</g>
		<g>
			<rect x="420.049" y="335.031" fill="#FFDD93" width="4.684" height="8.263"/>
		</g>
		<g>
			<rect x="429.648" y="335.029" fill="#FFDD93" width="4.683" height="8.265"/>
		</g>
		<g>
			<rect x="440.882" y="335.027" fill="#FFDD93" width="4.683" height="8.264"/>
		</g>
		<g>
			<rect x="451.203" y="335.027" fill="#FFDD93" width="4.684" height="8.267"/>
		</g>
		<g>
			<rect x="460.276" y="335.031" fill="#FFDD93" width="4.684" height="8.263"/>
		</g>
	</g>
	<g>
		<linearGradient id="SVGID_1_" gradientUnits="userSpaceOnUse" x1="573.1074" y1="370.3594" x2="573.1074" y2="342.3535">
			<stop  offset="0" style="stop-color:#565859"/>
			<stop  offset="1" style="stop-color:#000000"/>
		</linearGradient>
		<path fill="url(#SVGID_1_)" d="M596.854,370.359l-23.747-21.068l-23.746,21.068h-8.938l30.547-27.103l0.031-0.031
			c0.384-0.386,0.861-0.657,1.384-0.786c0.178-0.044,0.364-0.071,0.555-0.081l0.058-0.002c0.031-0.001,0.068-0.003,0.104-0.003
			c0.049,0,0.086,0.002,0.122,0.003l0.042,0.001c0.201,0.011,0.388,0.038,0.565,0.082c0.521,0.129,1.001,0.4,1.384,0.786
			l0.031,0.031l30.546,27.103H596.854z"/>
		<circle fill="#BFC4C9" cx="573.108" cy="346.384" r="7.969"/>
		<path fill="#BFC4C9" d="M632.315,369.099H513.9c-4.964,0-9.003,4.039-9.003,9.004v51.282c0,4.964,4.039,9.004,9.003,9.004h118.415
			c4.964,0,9.003-4.04,9.003-9.004v-51.282C641.318,373.138,637.279,369.099,632.315,369.099z"/>
		<g>
			<path fill="#2772E0" d="M632.315,430.363h-66.442l22.594-53.24h43.849c0.54,0,0.979,0.439,0.979,0.979v51.282
				C633.295,429.924,632.855,430.363,632.315,430.363z"/>
			<path fill="#4385F5" d="M513.9,430.363c-0.539,0-0.979-0.439-0.979-0.979v-51.282c0-0.54,0.439-0.979,0.979-0.979h74.827
				l-22.595,53.24H513.9z"/>
		</g>
		<g>
			<path fill="#FFFFFF" d="M547.602,416.884h-7.775l-5.815-8.098h-2.462v8.098h-7.062v-24.97h12.199
				c6.385,0,9.703,4.102,9.703,8.596c0,3.068-1.07,5.672-5.279,7.526l6.492,8.42V416.884z M531.549,397.55v5.992h5.209
				c1.854,0,2.674-1.391,2.674-2.889c0-1.569-0.891-3.104-2.746-3.104H531.549z"/>
			<path fill="#FFFFFF" d="M570.751,416.884h-19.976v-24.97h19.477v5.921h-12.521v3.566h11.808v5.744h-11.808v3.781h13.02V416.884z"
				/>
			<path fill="#FFFFFF" d="M591.297,405.576c-0.178-2.996-0.178-4.139-0.213-5.102v-8.561h7.098v24.97h-5.992l-10.416-13.448
				l0.107,5.458v7.99h-7.135v-24.97h5.992L591.297,405.576z"/>
			<path fill="#FFFFFF" d="M608.525,397.729h-7.277v-5.814h21.618v5.814h-7.313v19.155h-7.027V397.729z"/>
		</g>
		<path fill="#9AA5A5" d="M581.067,346.98l-15.897-1.149c-0.316,4.391,2.984,8.206,7.373,8.523
			C576.934,354.671,580.75,351.371,581.067,346.98z"/>
	</g>
</g>
</svg>
