<?xml version="1.0" encoding="utf-8"?>
<!-- Generator: Adobe Illustrator 16.0.0, SVG Export Plug-In . SVG Version: 6.00 Build 0)  -->
<!DOCTYPE svg PUBLIC "-//W3C//DTD SVG 1.1//EN" "http://www.w3.org/Graphics/SVG/1.1/DTD/svg11.dtd">
<svg version="1.1" id="Layer_1" xmlns="http://www.w3.org/2000/svg" xmlns:xlink="http://www.w3.org/1999/xlink" x="0px" y="0px"
	 width="200px" height="70px" viewBox="0 0 200 70" enable-background="new 0 0 200 70" xml:space="preserve">
<path fill="#C9DF8B" d="M78.411,51.202c-0.566-1.045-0.333-4.704-0.333-4.704s0.066-3.819,0.333-5.386
	c0.266-1.566,1.098-3.229,1.098-3.229s1.086-1.702,2.007-2.714c0.92-1.011,2.133-1.787,2.588-2.04
	c0.455-0.252,1.126-0.906,2.557-1.419c1.43-0.513,3.726-0.746,3.726-0.746s2.128-0.2,3.892,0.067c1.763,0.266,3.56,1.122,3.56,1.122
	l2.228,1.472c0,0,1.016,0.788,1.853,1.722c0.835,0.934,1.242,1.275,1.685,2.129c0.444,0.853,1.153,2.218,1.153,2.218l1.331,2.581
	l1.178,2.703l0.153-0.583l0.542-3.862l-1.021-4.143l-2.019-3.746l-2.957-3.171l-3.314-2.14l-4.804-1.543l-4.258-0.555
	c0,0-1.563-0.308-3.459-0.887c-1.896-0.58-0.91-0.256-2.783-0.835c-1.442-0.446-2.716-0.842-2.716-0.842l2.282,2.939l2.495,2.559
	l-2.597-0.572l-1.382,0.387c0,0-1.241-0.207-3.016-0.709c-1.702-0.482-1.504-0.489-2.928-0.976
	c-1.082-0.371-3.016-0.799-3.016-0.799l-2.041-0.709l1.372,1.783l4.247,3.006l1.982,2.463l-1.825,2.866l-1.252,3.308l-0.542,4.253
	l0.803,5.148l2.045,3.584h0.799C78.057,51.202,78.977,52.247,78.411,51.202z"/>
<path fill="none" stroke="#38803E" stroke-width="3" stroke-miterlimit="10" d="M108.303,42.566c0,1.634-0.233,3.213-0.667,4.707
	c-2.036,7.005-8.502,12.124-16.164,12.124c-9.295,0-16.831-7.535-16.831-16.831c0-4.187,1.53-8.018,4.061-10.963
	c0.776-0.902-18.332-8.755-18.332-24.989c0-2.04,14.902,18.45,27.854,23.951c2.284,0.97-14.389-7.896-12.241-27.587
	c0.532-4.879,7.007,20.757,18.881,23.1C102.544,27.594,108.303,34.433,108.303,42.566z"/>
<path fill="none" d="M103.038,44.491"/>
<path fill="none" stroke="#38803E" stroke-width="3" stroke-miterlimit="10" d="M108.192,44.491c0,1.634-5.598,0.355-4.622,0.71
	c7.47,2.716-2.839,14.813-11.566,14.196"/>
<ellipse fill="#A7A9AC" cx="92.005" cy="66.312" rx="15.435" ry="1.597"/>
<ellipse fill="#8DC63F" cx="107.789" cy="67.909" rx="0.404" ry="0"/>
<ellipse transform="matrix(0.839 -0.5442 0.5442 0.839 -5.9953 61.2707)" fill="#38803E" cx="100.531" cy="40.766" rx="1.397" ry="1.996"/>
<ellipse transform="matrix(0.8389 -0.5443 0.5443 0.8389 -8.2084 65.5967)" fill="#38803E" cx="106.705" cy="46.664" rx="1.397" ry="1.996"/>
<rect x="-1" y="31.333" fill="none" width="71.583" height="44.667"/>
<text transform="matrix(1 0 0 1 1.9902 47.041)"><tspan x="0" y="0" fill="#58595B" font-family="'HelveticaNeue'" font-size="22" letter-spacing="2">RENT</tspan><tspan x="68.463" y="0" fill="#58595B" font-family="'HelveticaNeue-Thin'" font-size="22" letter-spacing="2">     </tspan></text>
<text transform="matrix(1 0 0 1 113.292 46.6646)" fill="#58595B" font-family="'HelveticaNeue-Thin'" font-size="22" letter-spacing="2">RABBIT</text>
</svg>
