<?xml version="1.0" encoding="utf-8"?>
<!-- Generator: Adobe Illustrator 16.0.0, SVG Export Plug-In . SVG Version: 6.00 Build 0)  -->
<!DOCTYPE svg PUBLIC "-//W3C//DTD SVG 1.1//EN" "http://www.w3.org/Graphics/SVG/1.1/DTD/svg11.dtd">
<svg version="1.1" id="Layer_1" xmlns="http://www.w3.org/2000/svg" xmlns:xlink="http://www.w3.org/1999/xlink" x="0px" y="0px"
	 width="900px" height="900px" viewBox="0 0 900 900" enable-background="new 0 0 900 900" xml:space="preserve">
<g id="CIRCLE">
</g>
<g id="FLAT-ICON">
	<path fill="#808080" d="M667.286,596.463h-0.515v-3.226h-3.561v-1.581h-4.25v1.965h-1.756v1.2h-3.073v-0.217h-0.687v-1.477h-0.584
		v1.096h-0.682v-3.278h-11.273v-1.696h-0.49v2.517h-1.159v-0.205h-0.512v-0.533h-2.196v0.49h-0.808v-0.694h-1.461v-0.697h-0.44
		v0.697h-1.427v-0.576h-0.329v-0.572h-0.954v0.572h-0.805v-5.649h-0.845v-4.832h-0.51v-0.614h-1.025v0.614h-0.841v-3.891h-3.076
		v3.891h-0.915v-0.9h-0.916v0.9h-0.584v1.271h-0.952v-9.912h-0.352v-0.346h-1.88v-0.474h-1.32v0.453h-0.882v-1.157h-1.862v0.708
		h-0.477v-1.181h-0.483v0.707h-1.666v0.838h-1.84v3.47l-6.121,0.046l-4.625,2.282l0.017,0.519l0.336,0.151l0.031,1.833h-0.611
		v-4.375h-0.402v4.375h-1.457v-0.706h-1.438v-0.582h-0.597v0.582h-0.975v1.265h-1.17v-0.517h-1.553v0.517h-0.289v5.34h-0.73v-1.115
		h-0.595v-0.643h-0.288l-1.054-2.787l-0.008-0.484c0,0,0.204-0.124,0.196-0.419c-0.01-0.294-0.375-0.348-0.473-0.348
		c-0.099,0-0.42,0.027-0.41,0.296c0.009,0.266,0.175,0.452,0.175,0.452v0.537l-0.247,0.712v-3.152h-0.844v-1.392h-1.228v0.32h-0.613
		v-0.448h-2.533v-4.461h-0.21v-0.324h-0.323v0.324h-0.751v-1.524h-0.057v-0.815h-0.305v0.815h-0.653v-0.601h-0.012v-2.232h-1.121
		v-0.429h-0.345v-6.69h-0.383v6.69h-0.309v0.421l-0.422-0.229h-0.637l0.032-0.671l-0.568-0.167l-0.102-8.988l-0.704-0.269
		l-8.612-0.133l0.067-2.247l-0.369-0.27l-0.067-11.068l-0.268-2.985l-3.318-0.032v-0.537l-0.972-0.604l-4.056-4.663v-1.979
		l-1.742,0.068v1.845l-4.591,5.132v0.904c0,0-2.413,0.034-3.083,0.034s-0.537,1.006-0.537,1.006l0.202,12.679l-0.402,0.268
		l0.101,4.494l-0.67,0.068l0.344,17.534h-0.115v1.07h-1.517v0.602h-1.937v0.537h0.499v0.493h-0.614v4.527h-0.402v0.579h-0.423
		l-0.192-32.285l-1.641-0.638l-17.394,0.369l0.376,31.39l-1.425-1.154l0.019-9.304h-3.656l-0.02-0.578l-3.714,0.019l0.019,0.637
		l-0.361-0.022l-0.578-50.027l-1.683-0.048l0.096-1.203l-5.43-0.434l-6.873,0.048l0.047,1.349l-1.248,0.048l0.239,18.712h-2.354
		l-0.048,1.104l-1.635,0.05l0.337,21.501h-1.778l-0.049,2.598h-3.603l0.098,4.856h-0.502v-1.421h-3.172v2.078h-1.241
		c-0.46-6.219-0.391-14.413-0.244-17.959c0.133-3.216,3.171-25.364,3.171-25.364l3.788-0.634c0,0,2.547-0.748,2.547-1.256
		c0-0.397-1.609-0.607-1.609-0.607l0.28-1.965l3.888-0.672c0,0,0.862-0.267,0.862-0.559c0-0.291-0.544-0.444-0.544-0.444
		l-2.649-0.963c0,0,0.317-0.672,0.342-1.179c0.025-0.507-1.735-0.812-1.735-0.812l0.025-0.202l-1.203-0.724
		c0,0-0.103,0.354-0.367,0.368c-0.268,0.012-0.38-0.47-0.38-0.47l-0.912,0.025l-4.727-1.648c0,0-0.887-0.367-0.925-0.95
		c-0.037-0.584,0.836-1.053,0.836-1.053s0.57-0.242,0.57-0.711s-1.241-0.43-1.241-0.43v-0.28l-0.419-0.011l-0.011-0.927
		l-1.698-0.113l0.012-0.406c0,0,0.013,0,0.076,0.012c0.064,0.014,0.127-0.088,0.077-0.228c-0.053-0.141-0.735-0.317-0.862-0.342
		c-0.127-0.025-0.254-0.025-0.254,0.152c0,0.177,0.165,0.228,0.165,0.228l-0.013,0.508l-0.709-0.014l0.026-1.419h-0.356
		l-0.779-9.527c0,0,0.119,0.014,0.119-0.236c0-0.204-0.205-0.202-0.205-0.202v-0.445c0,0,0.033-0.194-0.134-0.194
		c-0.168,0-0.153,0.192-0.153,0.192v0.457c0,0-0.206-0.055-0.231,0.21c-0.024,0.265,0.231,0.271,0.231,0.271l-0.361,9.529
		l-0.398-0.002l-0.011,1.397l-2.019,0.183V512.5l-0.338,0.024l0.003,0.275l-0.917,0.062l-0.023,1.468c0,0-0.89,0.024-1.059,0
		c-0.168-0.024-0.265,0.096-0.265,0.241c0,0.143,0.217,0.337,0.217,0.337s0.481,0.36,0.817,0.6c0.337,0.242,0.481,0.386,0.457,0.819
		c-0.024,0.433-0.097,0.554-0.674,0.866c-0.576,0.312-5.408,1.974-5.408,1.974l-1.084,0.071l-0.048,0.481l-0.457-0.023l-0.048-0.193
		l-0.384,0.071l-0.168,0.29l-2.068,0.962l0.457,1.612c0,0-1.154,0.337-1.756,0.48c-0.602,0.146-1.539,0.409-1.539,0.65
		s0.385,0.385,1.251,0.577c0.866,0.193,3.558,0.577,3.558,0.577l0.434,1.974c0,0-0.697,0.216-0.961,0.265
		c-0.264,0.048-0.626,0.168-0.602,0.409c0.024,0.24,1.058,0.794,2.164,1.131c1.106,0.336,4.112,0.554,4.112,0.554
		s1.246,8.83,1.867,13.001c0.008,0.045,0.014,0.091,0.021,0.136h-17.476v0.771l0.604,0.57l0.167,12.812l-3.585,0.033l0.216,17.301
		l-4.958,0.096v-15.756h-3.662v-3.059h-1.318v-0.815h-3.27v0.815h-7.372v0.614l-1.261-0.164l-0.055-3.781l-2.702-0.028l-1.931-2.51
		l-0.054-1.961l-0.331,0.028l-0.028,1.491l-1.819-0.249v-1.767h-0.304l-0.055,1.601l-1.351-0.027v-0.911h-0.221v0.966h-1.875v-1.463
		h-0.331l-0.055,2.098l-2.289,2.925l-2.096,0.056l-0.083,1.545l-0.248,0.414l-0.027,1.739l-1.076-0.056l-0.027,1.104l-0.358,0.248
		l-0.056,2.07h-1.407v0.496l-3.281,0.083l-0.028,2.98h-5.597l0.028,0.469c0,0,0.385-0.055,0.744,0.165
		c0.359,0.223,0.359,0.746,0.359,0.746l-0.083,5.022l-1.875,0.028l0.027-8.279l-3.529-0.414l-0.524,0.275l-5.708,0.139v-1.077
		l-2.536,0.028l-0.056,0.441l-2.206,0.027l-0.027,0.69h-1.075v-0.884l-0.773-0.027l0.056,0.441l-0.579,0.027l-0.055,0.523
		l-3.723-0.026l0.183,14.125h-0.118v-5.021h-0.098v-5.079h-0.293v5.079h-0.244v3.494h-0.968l-0.227-30.178l-0.497-0.165
		l-0.083-8.969l-0.551-0.139l0.083-1.185l-0.662-0.664l-1.682-0.083l-0.033-0.997l-3.062-0.017l0.101-0.704l-17.394-1.912
		l-0.201,5.434h-2.212l0.292,30.61l-0.292,2.303h-0.677v10.327l-1.689,11.625h-0.407v-0.086h-0.492v-12.907h-3.758v-1.419h-5.954
		v1.419h-3.173v9.093l-0.56-0.656l-0.023-1.28l-0.293,0.04v-1.189h-0.733v-4.368h-2.72l-0.108-10.374l0.474-0.476l0.136-3.727
		l-8.407-0.99v15.565h-2.212v4.369h-0.634v6.987h-2.539v5.353h-0.878v-9.118h-6.442v-1.692h-1.708v-1.367h-0.441v1.367h-1.169v0.926
		h-2.439v0.767h-4.052v5.789h-5.223v-10.866h-3.368v-0.819h-0.146v-0.71h-1.27v0.71h-2.147v0.819h-3.172v11.357h-8.3v3.274h-1.367
		v8.335c-0.67-0.181-1.339-0.358-2-0.543v-17.618h-0.781v-1.966h-0.439v-3.988h-10.299v-2.401h-0.341v2.401h-1.465v3.988h-0.684
		v1.966h-0.682v12.893c-3.041-1.078-5.71-2.07-7.876-2.896c-1.901-0.724-3.415-1.32-4.455-1.737
		c-0.258-0.104-0.484-0.195-0.681-0.273c0-0.705,0-1.114,0-1.114l-0.668-0.247l-0.021-0.325h-0.466l-0.018,0.327l-0.857,0.189
		c0,0-0.002,0.479-0.007,1.296c-0.115,0.06-0.243,0.125-0.377,0.194v0.539c0.132-0.068,0.26-0.132,0.375-0.191
		c-0.011,2.162-0.028,5.925-0.047,9.663H248V626h419.286V596.463z M263.426,602.985h-12.927c-0.066-3.919-0.082-7.723-0.084-9.809
		c2.011,0.812,6.73,2.674,13.012,4.896V602.985z M278.118,603.068v-0.276c0.333,0.092,0.668,0.184,1.005,0.276H278.118z
		 M280.118,603.391h-0.928v-0.305c0.308,0.083,0.618,0.168,0.928,0.25V603.391z M474.198,529.089l0.378,0.06l1.106,9.116
		L474.198,529.089z M477.212,542.192l-1.559-13.074c0,0,0.846,0.116,1.368,0.116c0.523,0,1.165,0,1.165,0l0.147,12.958H477.212
		L477.212,542.192z M487.704,528.944l-1.601,12.117l1.222-12.117H487.704z M483.774,548.285c-0.145,0.349-0.203,0.437-0.203,0.437
		l-0.291-19.487c0,0,0.814-0.087,1.513-0.146c0.699-0.059,1.485-0.059,1.485-0.059l-2.213,18.235
		C484.064,547.266,483.92,547.936,483.774,548.285z M484.834,572.219c-0.176-4.68-0.398-14.143-0.398-14.143h0.309
		c0,0,0.134,8.964,0.268,13.313c0.006,0.221,0.019,0.501,0.037,0.829H484.834L484.834,572.219z"/>
</g>
</svg>
