<?xml version="1.0" encoding="utf-8"?>
<!-- Generator: Adobe Illustrator 16.0.0, SVG Export Plug-In . SVG Version: 6.00 Build 0)  -->
<!DOCTYPE svg PUBLIC "-//W3C//DTD SVG 1.1//EN" "http://www.w3.org/Graphics/SVG/1.1/DTD/svg11.dtd">
<svg version="1.1" xmlns="http://www.w3.org/2000/svg" xmlns:xlink="http://www.w3.org/1999/xlink" x="0px" y="0px" width="900px"
	 height="900px" viewBox="0 0 900 900" enable-background="new 0 0 900 900" xml:space="preserve">
<g id="CIRCLE">
</g>
<g id="FLAT-ICON">
	<g>
		<g>
			<rect x="377.939" y="568.722" fill="#5C9D52" width="176.957" height="4.424"/>
			<rect x="377.939" y="573.146" fill="#8BB069" width="176.957" height="4.422"/>
			<rect x="377.939" y="564.296" fill="#8BB069" width="176.957" height="4.426"/>
			<rect x="377.939" y="577.567" fill="#5C9D52" width="176.957" height="4.426"/>
			<rect x="377.939" y="586.417" fill="#5C9D52" width="176.957" height="4.424"/>
			<rect x="377.939" y="581.993" fill="#8BB069" width="176.957" height="4.424"/>
			<rect x="377.939" y="466.97" fill="#A2C66A" width="176.957" height="97.326"/>
			<rect x="386.787" y="475.819" fill="#59A353" width="159.262" height="79.629"/>
			<circle fill="#A2C66A" cx="466.417" cy="515.634" r="30.967"/>
			<g>
				<path fill="#59A353" d="M465.127,542.181v-2.736c-2.717-0.232-5.033-0.678-6.948-1.332c-1.916-0.654-3.49-1.588-4.729-2.805
					c-1.238-1.215-2.146-2.723-2.729-4.525c-0.582-1.797-0.874-3.936-0.874-6.414h8.731c0.194,1.494,0.447,2.732,0.766,3.717
					c0.313,0.982,0.728,1.777,1.235,2.385c0.51,0.607,1.127,1.062,1.856,1.365c0.727,0.307,1.624,0.527,2.691,0.668v-13.537
					c-2.426-0.605-4.535-1.297-6.33-2.066c-1.795-0.771-3.287-1.682-4.474-2.736c-1.189-1.051-2.087-2.266-2.692-3.646
					c-0.608-1.379-0.91-3.025-0.91-4.943c0-1.824,0.363-3.541,1.092-5.154c0.727-1.613,1.733-3.027,3.018-4.242
					c1.286-1.217,2.803-2.174,4.55-2.875c1.744-0.703,3.661-1.076,5.747-1.125v-3.084h2.984v3.084
					c8.973,0.281,13.678,4.816,14.115,13.605h-8.585c-0.245-2.523-0.815-4.242-1.712-5.156c-0.897-0.91-2.172-1.412-3.818-1.504
					v12.061c3.249,1.029,5.857,2.033,7.818,3.016c1.967,0.98,3.469,2.025,4.513,3.121c1.042,1.098,1.733,2.303,2.074,3.609
					c0.339,1.312,0.51,2.83,0.51,4.561c0,2.059-0.353,3.918-1.056,5.574c-0.703,1.66-1.709,3.098-3.02,4.314
					c-1.309,1.217-2.885,2.174-4.73,2.875c-1.844,0.699-3.881,1.096-6.109,1.191v2.736H465.127z M465.127,499.122
					c-1.771,0.092-3.162,0.654-4.165,1.682c-1.008,1.029-1.511,2.221-1.511,3.576c0,1.402,0.489,2.678,1.474,3.824
					c0.979,1.143,2.381,1.832,4.202,2.066V499.122z M468.111,532.503c1.842-0.094,3.309-0.727,4.4-1.895s1.637-2.502,1.637-3.996
					c0-1.637-0.545-3.018-1.637-4.141c-1.092-1.121-2.559-1.914-4.4-2.383V532.503z"/>
			</g>
			<circle fill="#A2C66A" cx="386.787" cy="475.819" r="8.848"/>
			<circle fill="#A2C66A" cx="386.787" cy="555.448" r="8.848"/>
			<path fill="#A2C66A" d="M554.896,555.448c0,4.885-3.959,8.848-8.847,8.848c-4.89,0-8.849-3.963-8.849-8.848
				c0-4.889,3.959-8.848,8.849-8.848C550.937,546.601,554.896,550.56,554.896,555.448z"/>
			<path fill="#A2C66A" d="M554.896,475.819c0,4.885-3.959,8.848-8.847,8.848c-4.89,0-8.849-3.963-8.849-8.848
				c0-4.889,3.959-8.85,8.849-8.85C550.937,466.97,554.896,470.931,554.896,475.819z"/>
		</g>
	</g>
</g>
</svg>
