<?xml version="1.0" encoding="utf-8"?>
<!-- Generator: Adobe Illustrator 16.0.0, SVG Export Plug-In . SVG Version: 6.00 Build 0)  -->
<!DOCTYPE svg PUBLIC "-//W3C//DTD SVG 1.1//EN" "http://www.w3.org/Graphics/SVG/1.1/DTD/svg11.dtd">
<svg version="1.1" id="Layer_1" xmlns="http://www.w3.org/2000/svg" xmlns:xlink="http://www.w3.org/1999/xlink" x="0px" y="0px"
	 width="200px" height="70px" viewBox="0 0 200 70" enable-background="new 0 0 200 70" xml:space="preserve">
<g id="FLAT-ICON">
	<path fill="#818181" d="M199.788,55.926h-0.245v-1.537h-1.696v-0.753h-2.025v0.937h-0.836v0.572h-1.464V55.04h-0.327v-0.704h-0.278
		v0.522h-0.325v-1.562h-5.372v-0.808h-0.233v1.199h-0.552V53.59h-0.244v-0.254h-1.046v0.234h-0.385v-0.331h-0.696v-0.332h-0.21
		v0.332h-0.68v-0.274h-0.157v-0.272h-0.455v0.272h-0.383v-2.692h-0.403V47.97h-0.243v-0.293h-0.489v0.293h-0.4v-1.854h-1.466v1.854
		h-0.436v-0.429h-0.437v0.429h-0.278v0.605h-0.454v-4.723h-0.167v-0.165h-0.896v-0.226h-0.629v0.216h-0.42v-0.551h-0.887v0.337
		h-0.227v-0.562h-0.23v0.337h-0.794v0.399h-0.876v1.653l-2.917,0.022l-2.204,1.087l0.008,0.247l0.16,0.072l0.015,0.874h-0.292
		v-2.085h-0.192v2.085h-0.694v-0.336h-0.686v-0.277h-0.285v0.277h-0.464v0.603h-0.557v-0.246h-0.74v0.246h-0.138v2.544h-0.348
		v-0.532h-0.283v-0.306h-0.137l-0.502-1.328l-0.004-0.23c0,0,0.097-0.059,0.094-0.2c-0.005-0.14-0.179-0.166-0.226-0.166
		s-0.2,0.013-0.195,0.141c0.004,0.127,0.083,0.216,0.083,0.216v0.256l-0.118,0.339V47.09h-0.402v-0.663h-0.585v0.153h-0.292v-0.214
		h-1.207v-2.125h-0.1v-0.154h-0.154v0.154h-0.357v-0.726h-0.027v-0.389h-0.145v0.389h-0.312v-0.287h-0.005v-1.063h-0.534V41.96
		h-0.164v-3.188h-0.183v3.188h-0.147v0.2l-0.201-0.109h-0.303l0.015-0.319l-0.271-0.08L156.4,37.37l-0.336-0.128l-4.104-0.063
		l0.032-1.071l-0.176-0.128l-0.032-5.274l-0.127-1.423l-1.582-0.015v-0.256l-0.463-0.288l-1.933-2.222v-0.943l-0.83,0.033v0.879
		l-2.188,2.445v0.431c0,0-1.15,0.016-1.469,0.016c-0.319,0-0.256,0.479-0.256,0.479l0.097,6.041l-0.192,0.128l0.048,2.141
		l-0.319,0.033l0.164,8.355h-0.055v0.51h-0.723v0.287h-0.922v0.256h0.238v0.235h-0.293v2.157h-0.191v0.276h-0.202l-0.092-15.384
		l-0.782-0.304l-8.288,0.176l0.179,14.957l-0.679-0.55l0.009-4.434h-1.742l-0.009-0.275l-1.77,0.009l0.009,0.304l-0.172-0.011
		l-0.275-23.838l-0.802-0.023l0.045-0.573l-2.587-0.207l-3.275,0.023l0.022,0.643l-0.595,0.022l0.114,8.917h-1.122l-0.022,0.526
		l-0.779,0.023l0.161,10.245h-0.847l-0.023,1.238h-1.717l0.047,2.314h-0.239v-0.677h-1.511v0.99h-0.592
		c-0.219-2.963-0.186-6.868-0.116-8.558c0.063-1.532,1.511-12.086,1.511-12.086l1.805-0.302c0,0,1.213-0.356,1.213-0.599
		c0-0.189-0.767-0.29-0.767-0.29l0.133-0.936l1.853-0.32c0,0,0.411-0.127,0.411-0.266c0-0.139-0.259-0.211-0.259-0.211l-1.262-0.459
		c0,0,0.151-0.32,0.163-0.562c0.012-0.242-0.827-0.387-0.827-0.387l0.012-0.097l-0.573-0.345c0,0-0.049,0.169-0.175,0.176
		c-0.127,0.005-0.181-0.224-0.181-0.224l-0.435,0.012l-2.252-0.786c0,0-0.423-0.175-0.441-0.453
		c-0.018-0.278,0.398-0.501,0.398-0.501s0.272-0.116,0.272-0.339c0-0.224-0.592-0.205-0.592-0.205v-0.134l-0.2-0.005l-0.005-0.442
		l-0.809-0.054l0.005-0.194c0,0,0.006,0,0.036,0.006c0.031,0.006,0.061-0.042,0.037-0.108c-0.025-0.067-0.351-0.151-0.411-0.163
		c-0.061-0.012-0.121-0.012-0.121,0.073c0,0.084,0.079,0.108,0.079,0.108l-0.006,0.242l-0.338-0.006l0.013-0.676h-0.17l-0.371-4.54
		c0,0,0.057,0.006,0.057-0.113c0-0.097-0.098-0.096-0.098-0.096v-0.212c0,0,0.016-0.092-0.064-0.092
		c-0.08,0-0.073,0.092-0.073,0.092v0.218c0,0-0.098-0.026-0.11,0.1c-0.012,0.126,0.11,0.129,0.11,0.129l-0.172,4.541l-0.19-0.001
		l-0.005,0.666l-0.962,0.087v-0.145l-0.161,0.012l0.001,0.131l-0.437,0.03l-0.011,0.699c0,0-0.424,0.012-0.504,0
		c-0.08-0.012-0.126,0.046-0.126,0.115c0,0.068,0.104,0.16,0.104,0.16s0.229,0.172,0.389,0.286c0.161,0.115,0.229,0.184,0.218,0.39
		c-0.012,0.206-0.046,0.264-0.321,0.413c-0.275,0.149-2.577,0.94-2.577,0.94l-0.517,0.034l-0.023,0.229l-0.218-0.011l-0.022-0.092
		l-0.183,0.034l-0.08,0.138l-0.985,0.458l0.218,0.768c0,0-0.55,0.161-0.837,0.229c-0.287,0.069-0.733,0.195-0.733,0.31
		c0,0.115,0.184,0.183,0.596,0.275c0.413,0.092,1.695,0.275,1.695,0.275l0.207,0.94c0,0-0.332,0.103-0.458,0.126
		c-0.125,0.023-0.298,0.08-0.287,0.195c0.012,0.114,0.504,0.378,1.031,0.539c0.527,0.16,1.959,0.264,1.959,0.264
		s0.594,4.208,0.89,6.195c0.004,0.021,0.007,0.043,0.01,0.064h-8.327v0.368l0.287,0.272l0.08,6.105l-1.708,0.016l0.103,8.244
		l-2.363,0.046v-7.508h-1.745V36.15h-0.628v-0.388h-1.558v0.388h-3.512v0.293l-0.601-0.078l-0.026-1.802l-1.288-0.014l-0.92-1.196
		l-0.026-0.935l-0.158,0.014l-0.014,0.71l-0.867-0.119v-0.842h-0.145l-0.026,0.763l-0.644-0.013v-0.435h-0.105v0.46h-0.893v-0.697
		h-0.158l-0.026,1l-1.091,1.394l-0.999,0.026l-0.04,0.736L80.7,35.615l-0.013,0.829l-0.513-0.026l-0.013,0.525l-0.171,0.118
		l-0.026,0.987h-0.67v0.236l-1.563,0.04l-0.013,1.42H75.05l0.013,0.224c0,0,0.184-0.026,0.354,0.079
		c0.171,0.106,0.171,0.355,0.171,0.355l-0.039,2.393l-0.894,0.014l0.013-3.945l-1.682-0.197l-0.25,0.131l-2.72,0.066V38.35
		l-1.208,0.014l-0.026,0.21l-1.051,0.013l-0.013,0.329h-0.512v-0.421l-0.368-0.013l0.026,0.21l-0.276,0.013l-0.026,0.25
		l-1.773-0.013l0.087,6.731h-0.057v-2.393h-0.046v-2.42h-0.14v2.42h-0.116v1.665h-0.461l-0.108-14.379l-0.237-0.079l-0.04-4.274
		l-0.263-0.066l0.04-0.564l-0.315-0.316l-0.801-0.04l-0.016-0.475l-1.458-0.008l0.048-0.335l-8.288-0.911l-0.096,2.589h-1.054
		l0.139,14.586l-0.139,1.097h-0.323v4.921l-0.805,5.539h-0.194v-0.041h-0.234v-6.15H48.12v-0.676h-2.837v0.676h-1.512v4.333
		l-0.267-0.312l-0.011-0.61l-0.14,0.019V48.9h-0.349v-2.082h-1.296l-0.052-4.943l0.226-0.227l0.065-1.776l-4.006-0.472v7.417h-1.054
		V48.9h-0.302v3.329h-1.21v2.551h-0.418v-4.345h-3.07v-0.806h-0.813v-0.651h-0.21v0.651h-0.557v0.441h-1.162v0.365h-1.931v2.759
		h-2.489v-5.178H23.12v-0.391h-0.07v-0.338h-0.604v0.338h-1.023v0.391h-1.511v5.412h-3.955v1.561h-0.651v3.971
		c-0.319-0.086-0.638-0.17-0.953-0.259v-8.395h-0.372v-0.937H13.77v-1.9H8.862v-1.144H8.7v1.144H8.001v1.9H7.676v0.937H7.351v6.143
		c-1.449-0.514-2.721-0.986-3.753-1.38c-0.906-0.345-1.627-0.629-2.123-0.828c-0.124-0.049-0.231-0.093-0.325-0.13
		c0-0.336,0-0.531,0-0.531l-0.318-0.118l-0.01-0.155H0.6l-0.009,0.156l-0.408,0.09c0,0-0.001,0.228-0.003,0.618
		C0.125,54.199,0.064,54.23,0,54.263v0.257c0.063-0.033,0.124-0.063,0.178-0.091c-0.005,1.03-0.013,2.823-0.022,4.604H0V70h199.788
		V55.926z M7.351,59.034h-6.16c-0.032-1.868-0.039-3.68-0.041-4.674c0.958,0.387,3.207,1.274,6.2,2.333V59.034z M14.351,59.073
		v-0.132c0.159,0.044,0.318,0.087,0.479,0.132H14.351z M15.304,59.227h-0.442v-0.145c0.146,0.04,0.294,0.08,0.442,0.119V59.227z
		 M107.783,23.822l0.18,0.028l0.527,4.344L107.783,23.822z M109.219,30.066l-0.743-6.23c0,0,0.403,0.056,0.652,0.056
		c0.25,0,0.555,0,0.555,0l0.07,6.174H109.219L109.219,30.066z M114.218,23.753l-0.763,5.774l0.582-5.774H114.218z M112.346,32.969
		c-0.069,0.166-0.097,0.208-0.097,0.208l-0.139-9.286c0,0,0.388-0.042,0.721-0.069s0.708-0.028,0.708-0.028l-1.054,8.689
		C112.484,32.483,112.415,32.803,112.346,32.969z M112.851,44.374c-0.084-2.23-0.19-6.739-0.19-6.739h0.147
		c0,0,0.064,4.271,0.127,6.344c0.003,0.105,0.009,0.239,0.018,0.395H112.851L112.851,44.374z"/>
</g>
</svg>
