<?xml version="1.0" encoding="utf-8"?>
<!-- Generator: Adobe Illustrator 16.0.0, SVG Export Plug-In . SVG Version: 6.00 Build 0)  -->
<!DOCTYPE svg PUBLIC "-//W3C//DTD SVG 1.1//EN" "http://www.w3.org/Graphics/SVG/1.1/DTD/svg11.dtd">
<svg version="1.1" xmlns="http://www.w3.org/2000/svg" xmlns:xlink="http://www.w3.org/1999/xlink" x="0px" y="0px" width="900px"
	 height="900px" viewBox="0 0 900 900" enable-background="new 0 0 900 900" xml:space="preserve">
<g id="CIRCLE">
</g>
<g id="FLAT-ICON">
	<g>
		<g>
			<g>
				<g>
					<rect x="295.293" y="420.191" fill="#2F484E" width="49.417" height="73.012"/>
				</g>
				<g>
					<g>
						<path fill="#A3AEB0" d="M320.001,449.451c-11.013,0-19.972,8.959-19.972,19.973c0,11.012,8.959,19.971,19.972,19.971
							s19.972-8.959,19.972-19.971C339.973,458.41,331.014,449.451,320.001,449.451z M320.001,488.838
							c-10.705,0-19.414-8.711-19.414-19.414c0-10.705,8.708-19.416,19.414-19.416c10.706,0,19.414,8.71,19.414,19.416
							C339.415,480.127,330.707,488.838,320.001,488.838z"/>
					</g>
					<path fill="#A3AEB0" d="M320.001,453.797c-8.629,0-15.626,6.996-15.626,15.627c0,8.629,6.997,15.625,15.626,15.625
						c8.63,0,15.626-6.996,15.626-15.625C335.627,460.793,328.631,453.797,320.001,453.797z M320.001,477.129
						c-4.255,0-7.706-3.449-7.706-7.705s3.451-7.707,7.706-7.707c4.257,0,7.706,3.451,7.706,7.707S324.258,477.129,320.001,477.129z
						"/>
				</g>
				<g>
					<g>
						<path fill="#A3AEB0" d="M320.001,424.287c-6.043,0-10.96,4.917-10.96,10.962c0,6.043,4.917,10.96,10.96,10.96
							c6.044,0,10.961-4.917,10.961-10.96C330.962,429.204,326.045,424.287,320.001,424.287z M320.001,445.652
							c-5.736,0-10.403-4.667-10.403-10.403c0-5.737,4.667-10.404,10.403-10.404c5.737,0,10.405,4.667,10.405,10.404
							C330.406,440.985,325.738,445.652,320.001,445.652z"/>
					</g>
					<path fill="#A3AEB0" d="M320.001,427.729c-4.151,0-7.518,3.367-7.518,7.52c0,4.151,3.367,7.519,7.518,7.519
						c4.152,0,7.519-3.367,7.519-7.519C327.52,431.096,324.153,427.729,320.001,427.729z M320.001,438.956
						c-2.047,0-3.707-1.66-3.707-3.707c0-2.048,1.66-3.708,3.707-3.708s3.708,1.66,3.708,3.708
						C323.709,437.295,322.048,438.956,320.001,438.956z"/>
				</g>
				<g>
					<g>
						<g>
							<circle fill="#697B7F" cx="302.537" cy="428.273" r="3.708"/>
							<path fill="#A3AEB0" d="M302.537,424.332c-2.173,0-3.94,1.769-3.94,3.941s1.767,3.941,3.94,3.941
								c2.174,0,3.943-1.769,3.943-3.941S304.711,424.332,302.537,424.332z M302.537,431.747c-1.915,0-3.473-1.558-3.473-3.474
								c0-1.915,1.558-3.474,3.473-3.474c1.917,0,3.476,1.559,3.476,3.474C306.013,430.189,304.454,431.747,302.537,431.747z"/>
						</g>
					</g>
					<g>
						<g>
							<circle fill="#697B7F" cx="337.464" cy="428.273" r="3.708"/>
							<path fill="#A3AEB0" d="M337.464,424.332c-2.173,0-3.94,1.769-3.94,3.941s1.767,3.941,3.94,3.941
								c2.174,0,3.942-1.769,3.942-3.941S339.638,424.332,337.464,424.332z M337.464,431.747c-1.916,0-3.473-1.558-3.473-3.474
								c0-1.915,1.558-3.474,3.473-3.474c1.916,0,3.475,1.559,3.475,3.474C340.938,430.189,339.38,431.747,337.464,431.747z"/>
						</g>
					</g>
				</g>
			</g>
			<g>
				<g>
					<rect x="338.795" y="489.463" fill="#CF4742" width="3.919" height="1.441"/>
				</g>
				<g>
					<rect x="297.852" y="489.463" fill="#48BC9E" width="3.92" height="1.441"/>
				</g>
			</g>
		</g>
	</g>
	<g>
		<g>
			<g>
				<g>
					<rect x="349.085" y="420.191" fill="#2F484E" width="49.417" height="73.012"/>
				</g>
				<g>
					<g>
						<path fill="#A3AEB0" d="M373.793,449.451c-11.013,0-19.972,8.959-19.972,19.973c0,11.012,8.959,19.971,19.972,19.971
							s19.972-8.959,19.972-19.971C393.765,458.41,384.806,449.451,373.793,449.451z M373.793,488.838
							c-10.705,0-19.414-8.711-19.414-19.414c0-10.705,8.708-19.416,19.414-19.416c10.706,0,19.413,8.71,19.413,19.416
							C393.206,480.127,384.499,488.838,373.793,488.838z"/>
					</g>
					<path fill="#A3AEB0" d="M373.793,453.797c-8.63,0-15.626,6.996-15.626,15.627c0,8.629,6.996,15.625,15.626,15.625
						s15.626-6.996,15.626-15.625C389.419,460.793,382.423,453.797,373.793,453.797z M373.793,477.129
						c-4.255,0-7.706-3.449-7.706-7.705s3.451-7.707,7.706-7.707c4.257,0,7.706,3.451,7.706,7.707S378.05,477.129,373.793,477.129z"
						/>
				</g>
				<g>
					<g>
						<path fill="#A3AEB0" d="M373.793,424.287c-6.044,0-10.96,4.917-10.96,10.962c0,6.043,4.916,10.96,10.96,10.96
							s10.962-4.917,10.962-10.96C384.755,429.204,379.837,424.287,373.793,424.287z M373.793,445.652
							c-5.735,0-10.403-4.667-10.403-10.403c0-5.737,4.668-10.404,10.403-10.404c5.737,0,10.405,4.667,10.405,10.404
							C384.198,440.985,379.53,445.652,373.793,445.652z"/>
					</g>
					<path fill="#A3AEB0" d="M373.793,427.729c-4.151,0-7.519,3.367-7.519,7.52c0,4.151,3.367,7.519,7.519,7.519
						c4.152,0,7.519-3.367,7.519-7.519C381.312,431.096,377.945,427.729,373.793,427.729z M373.793,438.956
						c-2.047,0-3.707-1.66-3.707-3.707c0-2.048,1.66-3.708,3.707-3.708s3.708,1.66,3.708,3.708
						C377.501,437.295,375.84,438.956,373.793,438.956z"/>
				</g>
				<g>
					<g>
						<g>
							<circle fill="#697B7F" cx="356.329" cy="428.273" r="3.708"/>
							<path fill="#A3AEB0" d="M356.329,424.332c-2.173,0-3.94,1.769-3.94,3.941s1.767,3.941,3.94,3.941
								c2.174,0,3.943-1.769,3.943-3.941S358.503,424.332,356.329,424.332z M356.329,431.747c-1.915,0-3.473-1.558-3.473-3.474
								c0-1.915,1.558-3.474,3.473-3.474c1.916,0,3.477,1.559,3.477,3.474C359.806,430.189,358.245,431.747,356.329,431.747z"/>
						</g>
					</g>
					<g>
						<g>
							<circle fill="#697B7F" cx="391.256" cy="428.273" r="3.708"/>
							<path fill="#A3AEB0" d="M391.256,424.332c-2.173,0-3.94,1.769-3.94,3.941s1.768,3.941,3.94,3.941
								c2.174,0,3.942-1.769,3.942-3.941S393.43,424.332,391.256,424.332z M391.256,431.747c-1.915,0-3.474-1.558-3.474-3.474
								c0-1.915,1.559-3.474,3.474-3.474c1.916,0,3.475,1.559,3.475,3.474C394.73,430.189,393.172,431.747,391.256,431.747z"/>
						</g>
					</g>
				</g>
			</g>
			<g>
				<g>
					<rect x="392.587" y="489.463" fill="#CF4742" width="3.92" height="1.441"/>
				</g>
				<g>
					<rect x="351.644" y="489.463" fill="#48BC9E" width="3.919" height="1.441"/>
				</g>
			</g>
		</g>
	</g>
	<g>
		<path fill="#8EDAE5" d="M524.57,487.999c-6.311-1.868-25.962-17.78-33.318-23.801c-18.4,6.91-42.641,5.956-60.851,14.049
			c-3.717,2.478-4.72,7.667-6.312,12.269c2.146,2.516,5.295,5.349,9.687,8.674l80.408-6.977
			C514.184,492.213,532.096,490.225,524.57,487.999z"/>
		<path fill="#83C9D4" d="M430.401,478.247c18.21-8.093,42.45-7.139,60.851-14.049c-1.414-1.156-2.378-1.954-2.703-2.209
			c-2-1.583-3.736-3.123-7.801-5.919c-4.066-2.797-29.574-0.684-32.342,0.337s-17.724,12.89-24.121,19.288
			c-4.527,4.527-5.389,8.726-0.196,14.82C425.682,485.914,426.685,480.725,430.401,478.247z"/>
		<polygon fill="#6C7B7D" points="416.897,473.436 416.897,470.979 283.112,470.979 283.112,473.436 416.897,473.436 		"/>
		<polygon fill="#6C7B7D" points="388.168,478.775 388.168,472.615 385.705,472.615 385.705,478.775 388.168,478.775 		"/>
		<polygon fill="#6C7B7D" points="305.885,478.775 305.885,472.615 303.424,472.615 303.424,478.775 305.885,478.775 		"/>
		<path opacity="0.4" fill="#FFFFFF" d="M527.541,487.867c-13.074-4.553-37.84-25.803-44.226-31.459l0,0l-1.622,1.846
			c6.537,5.729,31.02,26.956,45.03,31.935l0,0L527.541,487.867L527.541,487.867z"/>
		<path fill="#38803E" d="M423.87,483.287c7.387-7.797,16.621-23.6,29.135-24.005c12.517-0.416,31.808-0.416,31.808-0.416
			s-1.232-7.177-18.469-7.589c-17.236-0.416-27.29-1.028-37.756,8.822c-10.464,9.851-35.086,20.108-35.086,20.108L423.87,483.287z"
			/>
		<path fill="#38803E" d="M366.62,539.715h226.942c18.058,0.202,60.326,0.815,63.406-16.629c3.077-17.433,8.82-25.645-34.886-31.182
			c-43.702-5.547-103.005-5.131-115.519-5.131c-12.521,0-66.486-0.416-84.746-5.952c-18.262-5.54-125.37-3.075-134.606-3.075
			c-7.795,0-23.184,11.897-22.158,30.781c1.024,18.873,11.928,17.274,31.187,20.511C315.736,532.317,366.62,539.715,366.62,539.715z
			"/>
		<rect x="632.083" y="509.655" fill="#E58B00" width="11.086" height="2.461"/>
		<linearGradient id="SVGID_1_" gradientUnits="userSpaceOnUse" x1="284.7524" y1="503.1895" x2="284.7524" y2="505.6533">
			<stop  offset="0" style="stop-color:#FFAA00"/>
			<stop  offset="1" style="stop-color:#FF6600"/>
		</linearGradient>
		<rect x="279.212" y="503.189" fill="url(#SVGID_1_)" width="11.081" height="2.464"/>
		<path fill="#C6E1E5" d="M425.719,492.186c0,1.061,0.859,1.923,1.923,1.923h9.232c1.06,0,1.923-0.862,1.923-1.923l0,0
			c0-1.061-0.863-1.93-1.923-1.93h-9.232C426.578,490.256,425.719,491.125,425.719,492.186L425.719,492.186z"/>
		<path fill="#C6E1E5" d="M425.1,499.185c0,1.11,0.895,2.007,2.002,2.007c1.105,0,2-0.896,2-2.007c0-1.103-0.895-1.997-2-1.997
			C425.994,497.188,425.1,498.082,425.1,499.185z"/>
		<path fill="#E0E0E0" d="M641.367,529.764c0,2.948,2.396,5.339,5.347,5.339h9.834c2.951,0,5.343-2.391,5.343-5.339l0,0
			c0-2.955-2.392-5.346-5.343-5.346h-9.834C643.763,524.418,641.367,526.809,641.367,529.764L641.367,529.764z"/>
		<path fill="#E0E0E0" d="M262.182,520.533c0,2.939,2.39,5.339,5.341,5.339h9.836c2.952,0,5.34-2.399,5.34-5.339l0,0
			c0-2.955-2.389-5.348-5.34-5.348h-9.836C264.571,515.186,262.182,517.578,262.182,520.533L262.182,520.533z"/>
		<path fill="#A62414" d="M272.233,501.962c0,3.952-3.155,7.178-7.121,7.364c-0.02-0.271-0.042-0.524-0.058-0.799
			c-0.271-5.037,0.627-9.562,2.231-13.51C270.169,496.041,272.233,498.757,272.233,501.962z"/>
		<path fill="#8EDAE5" d="M657.232,521.664c-3.325-0.755-5.803-3.681-5.803-7.193c0-4.046,3.306-7.331,7.394-7.376
			C659.574,511.053,658.329,515.82,657.232,521.664z"/>
		<path fill="#F0F3F3" d="M265.146,509.761H581.66v2.458H265.425C265.308,511.439,265.216,510.619,265.146,509.761z"/>
		<path fill="#BFC4C9" d="M265.146,510.941H581.66v1.325H265.425C265.308,511.847,265.216,511.404,265.146,510.941z"/>
		<path fill="#38533E" d="M593.562,539.715h-30.4c-0.312-1.569-0.48-3.179-0.48-4.827c0-15.638,14.537-28.312,32.47-28.312
			c17.936,0,32.474,12.674,32.474,28.312c0,1.226-0.1,2.426-0.271,3.602C615.064,539.977,601.799,539.814,593.562,539.715z"/>
		<path fill="#38533E" d="M356.31,505.034c17.935,0,32.473,12.681,32.473,28.318c0,2.189-0.292,4.317-0.834,6.362H366.62
			c0,0-22.12-3.207-42.779-6.343c0-0.007,0-0.014,0-0.02C323.841,517.715,338.379,505.034,356.31,505.034z"/>
		<path fill="#38533E" d="M534.497,512.321c0.003-12.289-5.448-21.107-8.821-25.51c0.518,0,1.021,0,1.547,0.009
			c3.475,4.739,8.506,13.516,8.51,25.501c0,7.866-2.189,17.083-8.344,27.394h-1.444C532.295,529.316,534.497,520.11,534.497,512.321
			z"/>
		<path fill="#38533E" d="M423.438,481.275c-1.924,8.381-3.996,23.456-3.989,39.015c0,6.532,0.372,13.15,1.249,19.425h-1.244
			c-0.871-6.296-1.235-12.906-1.235-19.425c0.007-15.732,2.061-30.812,4.032-39.346
			C422.637,481.054,423.024,481.166,423.438,481.275z"/>
		<g>
			<ellipse fill="#809294" cx="543.314" cy="491.104" rx="5.041" ry="1.109"/>
			<path fill="#A5BCBF" d="M544.377,491.104c-0.043-12.717-10.453-46.786-16.137-58.229l0,0l-1.901,0.951
				c5.499,10.917,15.962,45.416,15.912,57.277l0,0H544.377L544.377,491.104z"/>
			<path fill="#809294" d="M524.04,432.235c0,1.792,1.454,3.253,3.253,3.253c1.791,0,3.246-1.461,3.246-3.253
				c0-1.797-1.455-3.251-3.246-3.251C525.494,428.984,524.04,430.438,524.04,432.235z"/>
		</g>
		<path fill="#BFC4C9" d="M641.367,529.764c0,2.948,2.396,5.339,5.347,5.339h9.834c2.951,0,5.343-2.391,5.343-5.339l0,0
			C659.256,531.949,644.454,531.75,641.367,529.764L641.367,529.764z"/>
		<path fill="#BFC4C9" d="M262.179,520.529c0,2.948,2.396,5.339,5.347,5.339h9.834c2.951,0,5.343-2.391,5.343-5.339l0,0
			C280.067,522.715,265.266,522.516,262.179,520.529L262.179,520.529z"/>
		<path opacity="0.6" fill="#FFFFFF" d="M651.381,514.471c0-4.046,3.306-7.331,7.394-7.376c0.767,1.392-0.084,6.915,0.088,5.082
			C658.916,511.604,651.381,514.471,651.381,514.471z"/>
	</g>
	<g>
		<g>
			<rect x="312.579" y="390.938" fill="#2F484E" width="73.012" height="27.89"/>
		</g>
		<g>
			<g>
				<circle fill="#697B7F" cx="319.336" cy="405.547" r="3.708"/>
				<path fill="#A3AEB0" d="M315.395,405.547c0,2.173,1.769,3.94,3.941,3.94s3.941-1.768,3.941-3.94
					c0-2.174-1.769-3.943-3.941-3.943S315.395,403.374,315.395,405.547z M322.81,405.547c0,1.915-1.558,3.473-3.474,3.473
					c-1.915,0-3.474-1.558-3.474-3.473c0-1.916,1.559-3.477,3.474-3.477C321.252,402.071,322.81,403.631,322.81,405.547z"/>
			</g>
		</g>
		<g>
			<g>
				<circle fill="#697B7F" cx="378.451" cy="405.546" r="3.708"/>
				<path fill="#A3AEB0" d="M374.509,405.546c0,2.173,1.769,3.94,3.941,3.94s3.941-1.768,3.941-3.94
					c0-2.174-1.769-3.942-3.941-3.942S374.509,403.373,374.509,405.546z M381.924,405.546c0,1.915-1.558,3.474-3.474,3.474
					c-1.915,0-3.474-1.559-3.474-3.474c0-1.916,1.559-3.475,3.474-3.475C380.366,402.072,381.924,403.63,381.924,405.546z"/>
			</g>
		</g>
		<g>
			<rect x="326.21" y="411.292" fill="#FFDD93" width="1.442" height="2.545"/>
		</g>
		<g>
			<rect x="329.213" y="411.292" fill="#FFDD93" width="1.442" height="2.545"/>
		</g>
		<rect x="371.083" y="396.84" fill="#A3AEB0" width="0.25" height="16.996"/>
		<rect x="367.708" y="396.84" fill="#A3AEB0" width="0.25" height="16.996"/>
		<rect x="363.833" y="396.84" fill="#A3AEB0" width="0.25" height="16.996"/>
		<rect x="360.458" y="396.84" fill="#A3AEB0" width="0.25" height="16.996"/>
		<rect x="356.583" y="396.84" fill="#A3AEB0" width="0.25" height="16.996"/>
		<rect x="355.148" y="409.488" fill="#FFFFFF" width="3.119" height="1.7"/>
		<rect x="358.898" y="399.904" fill="#FFFFFF" width="3.119" height="1.7"/>
		<rect x="362.523" y="403.638" fill="#FFFFFF" width="3.119" height="1.7"/>
		<rect x="366.398" y="406.188" fill="#FFFFFF" width="3.119" height="1.7"/>
		<rect x="369.648" y="400.988" fill="#FFFFFF" width="3.119" height="1.7"/>
		<rect x="326.21" y="396.838" fill="#8EDAE5" width="22.875" height="11.7"/>
		<rect x="326.21" y="406.188" opacity="0.5" fill="#18343A" width="22.875" height="2.351"/>
		<g>
			<rect x="332.335" y="411.292" fill="#FFDD93" width="1.442" height="2.545"/>
		</g>
		<g>
			<rect x="335.254" y="411.292" fill="#FFDD93" width="1.442" height="2.545"/>
		</g>
		<g>
			<rect x="338.21" y="411.292" fill="#FFDD93" width="1.442" height="2.545"/>
		</g>
		<g>
			<rect x="341.67" y="411.292" fill="#FFDD93" width="1.442" height="2.545"/>
		</g>
		<g>
			<rect x="344.849" y="411.292" fill="#FFDD93" width="1.442" height="2.546"/>
		</g>
		<g>
			<rect x="347.643" y="411.292" fill="#FFDD93" width="1.442" height="2.545"/>
		</g>
	</g>
	<g>
		<circle fill="#464646" cx="355.563" cy="537.409" r="24.55"/>
		<circle fill="#E0E0E0" stroke="#000000" stroke-miterlimit="10" cx="355.563" cy="537.41" r="12.548"/>
	</g>
	<g>
		<circle fill="#464646" cx="595.153" cy="537.409" r="24.55"/>
		<circle fill="#E0E0E0" stroke="#000000" stroke-miterlimit="10" cx="595.153" cy="537.41" r="12.547"/>
	</g>
</g>
</svg>
