<?xml version="1.0" encoding="utf-8"?>
<!-- Generator: Adobe Illustrator 16.0.0, SVG Export Plug-In . SVG Version: 6.00 Build 0)  -->
<!DOCTYPE svg PUBLIC "-//W3C//DTD SVG 1.1//EN" "http://www.w3.org/Graphics/SVG/1.1/DTD/svg11.dtd">
<svg version="1.1" xmlns="http://www.w3.org/2000/svg" xmlns:xlink="http://www.w3.org/1999/xlink" x="0px" y="0px" width="900px"
	 height="900px" viewBox="0 0 900 900" enable-background="new 0 0 900 900" xml:space="preserve">
<g id="CIRCLE">
</g>
<g id="FLAT-ICON">
	<g>
		<path fill="#E0E0E0" d="M513.885,677.985c-0.973-0.187-1.757-0.903-2.03-1.854l-13.361-46.484h-96.986l-13.361,46.484
			c-0.273,0.951-1.058,1.668-2.03,1.854l-14.55,2.792c-1.238,0.237-2.133,1.32-2.133,2.581v9.208h161.131v-9.209
			c0-1.26-0.895-2.343-2.132-2.58L513.885,677.985z"/>
		<polygon fill="#E0E0E0" points="498.493,630.645 494.778,617.718 405.22,617.718 401.505,630.645 		"/>
		<path fill="#2C3E50" d="M698.312,291.958c0-9.635-7.884-17.519-17.519-17.519H219.207c-9.675,0-17.519,7.844-17.519,17.519
			v308.239c0,9.638,7.884,17.521,17.52,17.521h461.585c9.635,0,17.519-7.883,17.519-17.521V291.958z M449.998,288.827
			c-1.889,0-3.42-1.53-3.42-3.423c0-1.889,1.531-3.422,3.42-3.422c1.891,0,3.422,1.533,3.422,3.422
			C453.42,287.297,451.889,288.827,449.998,288.827z"/>
		<g>
			<path fill="#FFFFFF" d="M227.966,297.212c-1.927,0-3.505,1.58-3.505,3.504v290.724c0,1.928,1.578,3.504,3.505,3.504h141.832
				l214.902-297.731H227.966z"/>
			<path fill="#F0F3F3" d="M672.033,594.943c1.925,0,3.505-1.576,3.505-3.504V300.716c0-1.924-1.58-3.504-3.505-3.504h-87.334
				L369.797,594.943H672.033z"/>
		</g>
		<path fill="#BFC4C9" d="M513.885,677.985c-0.973-0.187-1.757-0.903-2.03-1.854H388.146c-0.273,0.951-1.058,1.668-2.03,1.854
			l-14.55,2.792c-1.238,0.237-2.133,1.32-2.133,2.581l161.131-0.001c0-1.26-0.895-2.343-2.132-2.58L513.885,677.985z"/>
		<path fill="none" d="M500.921,469.447"/>
		<path fill="#8BC53F" d="M520.544,558.603c0,0-0.684,0-1.531,0c-0.855,0-1.54,0-1.54,0s0.685,0,1.54,0
			C519.86,558.603,520.544,558.603,520.544,558.603z"/>
		<g>
			<g>
				<path fill="#C8DE8A" d="M409.964,507.823c-1.854-3.426-1.092-15.423-1.092-15.423s0.218-12.521,1.092-17.658
					c0.874-5.132,3.599-10.586,3.599-10.586s3.564-5.581,6.58-8.899c3.016-3.316,6.993-5.859,8.484-6.688
					c1.492-0.827,3.695-2.971,8.382-4.652c4.69-1.681,12.219-2.446,12.219-2.446s6.979-0.654,12.756,0.22
					c5.782,0.872,11.674,3.679,11.674,3.679l7.307,4.827c0,0,3.329,2.583,6.07,5.645c2.74,3.061,4.072,4.182,5.525,6.98
					c1.455,2.796,3.779,7.271,3.779,7.271l4.367,8.459l3.861,8.862l0.499-1.908l1.773-12.659l-3.343-13.584l-6.621-12.28
					l-9.695-10.398l-10.859-7.016l-15.753-5.06l-13.96-1.821c0,0-5.124-1.01-11.342-2.907c-6.218-1.901-2.984-0.838-9.125-2.737
					c-4.732-1.461-8.907-2.76-8.907-2.76l7.479,9.636l8.182,8.388l-8.515-1.875l-4.53,1.269c0,0-4.069-0.678-9.887-2.326
					c-5.581-1.58-4.934-1.604-9.599-3.198c-3.547-1.215-9.887-2.619-9.887-2.619l-6.688-2.326l4.495,5.844l13.924,9.855l6.5,8.075
					l-5.984,9.396l-4.105,10.847l-1.777,13.945l2.636,16.879l6.704,11.751h2.619C408.802,507.823,411.817,511.249,409.964,507.823z"
					/>
				<path fill="none" stroke="#38803E" stroke-width="10" stroke-miterlimit="10" d="M507.968,479.51
					c0,5.36-0.762,10.535-2.183,15.433c-6.68,22.967-27.875,39.75-52.996,39.75c-30.476,0-55.185-24.705-55.185-55.183
					c0-13.727,5.018-26.287,13.313-35.942c2.546-2.958-60.1-28.706-60.1-81.929c0-6.688,48.859,60.491,91.321,78.525
					c7.487,3.179-47.178-25.89-40.137-90.448c1.748-15.996,22.976,68.053,61.905,75.736
					C489.09,430.422,507.968,452.846,507.968,479.51z"/>
				<path fill="none" stroke="#38803E" stroke-width="10" stroke-miterlimit="10" d="M507.604,485.824
					c0,5.354-18.353,1.162-15.151,2.324c24.493,8.907-9.311,48.571-37.922,46.544"/>
				<path fill="#A6A8AB" d="M505.138,557.364c0,2.894-22.656,5.238-50.607,5.238c-27.946,0-50.601-2.345-50.601-5.238
					c0-2.888,22.655-5.232,50.601-5.232C482.481,552.132,505.138,554.477,505.138,557.364z"/>
				<path fill="#38803E" d="M486.331,471.115c1.966,3.028,1.845,6.602-0.282,7.982c-2.12,1.376-5.437,0.034-7.402-2.997
					c-1.966-3.032-1.838-6.604,0.282-7.982C481.054,466.74,484.365,468.083,486.331,471.115z"/>
			</g>
			<path fill="#38803E" d="M506.572,490.453c1.966,3.032,1.844,6.608-0.282,7.986c-2.119,1.377-5.436,0.031-7.402-2.998
				c-1.965-3.035-1.844-6.608,0.282-7.984C501.29,486.08,504.606,487.425,506.572,490.453z"/>
		</g>
		<g>
			<rect x="242.333" y="305.999" fill="none" width="393.333" height="30.667"/>
			<text transform="matrix(1 0 0 1 242.3325 318.7783)"><tspan x="0" y="0" fill="#646464" font-family="'MyriadPro-Regular'" font-size="18">Log in </tspan><tspan x="50.273" y="0" fill="#646464" font-family="'MyriadPro-Regular'" font-size="18" letter-spacing="17">	</tspan><tspan x="72" y="0" fill="#646464" font-family="'MyriadPro-Regular'" font-size="18"> </tspan><tspan x="75.816" y="0" fill="#FF8F47" font-family="'MyriadPro-Regular'" font-size="18">  </tspan><tspan x="83.448" y="0" fill="#FF8F47" font-family="'MyriadPro-Bold'" font-size="18">Sign up</tspan><tspan x="144.07" y="0" fill="#646464" font-family="'MyriadPro-Bold'" font-size="18" letter-spacing="32">	</tspan><tspan x="179.999" y="0" fill="#646464" font-family="'MyriadPro-Regular'" font-size="18" letter-spacing="32">		</tspan><tspan x="252" y="0" fill="#646464" font-family="'MyriadPro-Regular'" font-size="18">Item list</tspan><tspan x="311.65" y="0" fill="#646464" font-family="'MyriadPro-Regular'" font-size="18" letter-spacing="8">	</tspan></text>
			<path fill="none" stroke="#646464" stroke-miterlimit="10" d="M632.414,321.332c-1.083,0-62.583,0-62.583,0
				s-1.131-0.44-1.129-1.165c0.007-3.583,0.023-11.598-0.003-12.75c-0.033-1.418,0.466-1.418,1.383-1.418
				c0.83,0,60.414,0.001,61.999,0s1.585,0.586,1.585,1.836s0,10.667,0,12S633.497,321.332,632.414,321.332z"/>
			<path fill="#38803E" d="M660.46,321.627c-0.423,0-24.353,0-24.353,0s-0.439-0.449-0.439-1.188
				c0.003-3.652,0.01-11.822-0.001-12.996c-0.013-1.446,0.181-1.446,0.538-1.446c0.323,0,23.508,0.001,24.124,0
				c0.617,0,0.617,0.598,0.617,1.871c0,1.274,0,10.872,0,12.23C660.946,321.459,660.881,321.627,660.46,321.627z"/>
			<rect x="637.5" y="311.332" fill="none" width="36.5" height="20"/>
			<text transform="matrix(1 0 0 1 637.5 316.3018)" fill="#FFFFFF" font-family="'MyriadPro-Regular'" font-size="7">Submit</text>
		</g>
		<path fill-rule="evenodd" clip-rule="evenodd" fill="#FFFFFF" stroke="#231F20" stroke-width="1.5" stroke-miterlimit="10" d="
			M380.098,340.469c-2.741,0.178-5.685,0.367-9.183,0.593c3.09,6.039,6.006,11.741,9.016,17.625
			c-1.303,0.729-2.362,1.321-3.811,2.131c-3.268-6.022-6.453-11.894-9.886-18.22c-2.467,1.919-4.774,3.714-7.467,5.809
			c0-10.173,0-20.001,0-29.574C365.768,325.933,372.892,333.159,380.098,340.469z"/>
	</g>
</g>
</svg>
